<svg version="1.1" id="Layer_1" xmlns="http://www.w3.org/2000/svg" xmlns:xlink="http://www.w3.org/1999/xlink" x="0px" y="0px"
	 width="100%" viewBox="0 0 1200 664" enable-background="new 0 0 1200 664" xml:space="preserve">
<path fill="#000000" opacity="1.000000" stroke="none" 
	d="
M719.000000,665.000000 
	C606.309998,665.000000 493.620026,665.000000 380.476532,664.607666 
	C380.314392,658.995056 384.282501,657.280762 388.225006,655.363220 
	C397.523712,650.840576 406.746460,646.161865 415.447784,641.821655 
	C415.290649,638.492188 415.381805,635.710022 414.993683,632.996399 
	C413.066711,619.524292 410.803955,606.097046 409.078552,592.600342 
	C407.936646,583.668030 408.290497,583.502380 399.998627,581.024597 
	C393.718842,579.148010 387.272461,576.097168 380.999268,576.322876 
	C370.748138,576.691772 360.567627,579.246643 350.390350,581.064209 
	C349.481079,581.226562 348.093262,582.790649 348.148193,583.623169 
	C348.578491,590.144653 349.702271,596.640808 349.798187,603.156677 
	C349.857605,607.195007 351.287567,611.305969 348.107574,615.427307 
	C335.499725,631.767395 323.331299,648.446533 311.000000,665.000000 
	C250.643341,665.000000 190.286682,665.000000 129.382141,664.641174 
	C123.025955,650.533813 117.217659,636.785278 111.394272,623.001038 
	C95.650803,628.104431 79.936211,633.198486 63.428406,638.549622 
	C65.291977,647.396667 67.145988,656.198364 69.000000,665.000000 
	C46.336769,665.000000 23.673534,665.000000 1.007727,665.000000 
	C1.005152,443.703644 1.005152,222.407272 1.005152,1.055454 
	C400.902405,1.055454 800.804871,1.055454 1200.853638,1.055454 
	C1200.853638,222.333267 1200.853638,443.666626 1200.853638,665.000000 
	C1120.572266,665.000000 1040.251221,665.000000 959.114502,664.747131 
	C963.073120,654.468933 967.847290,644.443604 972.693420,634.267090 
	C947.530396,625.721924 922.394470,617.117859 897.189636,608.720642 
	C894.332214,607.768677 892.837708,606.487061 891.961121,603.578796 
	C886.747864,586.282837 881.357361,569.039856 875.945312,551.804626 
	C875.255859,549.608948 873.966003,548.506287 871.142273,549.251038 
	C860.672974,552.012085 850.126831,554.485840 839.591125,556.989807 
	C822.055664,561.157471 804.506042,565.265259 786.962402,569.398254 
	C786.721985,569.932129 786.481567,570.465942 786.241150,570.999817 
	C798.147644,580.531616 811.814575,587.547058 824.576050,595.832397 
	C837.495422,604.220398 850.718384,612.140808 863.925171,620.338501 
	C858.747681,629.279602 853.597900,637.975586 848.650452,646.785156 
	C845.286926,652.774414 842.206848,658.922791 839.000000,665.000000 
	C812.309998,665.000000 785.620056,665.000000 758.129639,664.756409 
	C762.580322,657.481934 768.006531,650.572449 773.000244,643.363220 
	C775.130920,640.287170 777.296204,636.700562 777.733704,633.135864 
	C778.174377,629.545349 776.490173,625.694092 775.782593,622.183167 
	C752.891968,625.736633 730.542175,629.206116 707.884705,632.723389 
	C709.610413,637.322449 711.184387,641.207764 712.529297,645.170715 
	C714.763550,651.754150 716.850769,658.387634 719.000000,665.000000 
M1040.125488,495.003723 
	C1038.889648,494.673157 1037.670654,494.244263 1036.415283,494.026886 
	C1020.932007,491.346191 1005.454407,488.629028 989.946594,486.097168 
	C986.956055,485.608887 984.072876,485.476166 982.053589,489.158997 
	C980.412659,492.151886 977.344543,494.362335 973.985657,496.988800 
	C958.559631,497.326324 943.134827,497.743347 927.707214,497.973114 
	C917.636780,498.123138 907.562195,498.001404 897.089600,498.001404 
	C893.497864,481.047974 889.314209,463.448334 886.233826,445.657684 
	C885.072449,438.950226 882.057312,434.778381 876.814026,431.110840 
	C872.009216,427.749969 867.718018,423.654846 863.128967,419.823517 
	C875.722290,406.070190 887.384521,393.334045 899.046509,380.597687 
	C906.380066,372.588440 913.770325,364.629761 920.995422,356.523834 
	C922.335144,355.020782 923.675049,352.991089 923.867859,351.088226 
	C924.531433,344.537628 924.686523,337.935486 925.033264,331.391510 
	C908.757568,322.801727 892.699829,314.261902 876.545715,305.908630 
	C875.037354,305.128662 872.872437,305.196930 871.092163,305.444763 
	C866.148315,306.133026 861.265442,307.692535 856.323669,307.856659 
	C849.579468,308.080566 842.803101,307.329010 836.040100,307.005188 
	C835.042419,306.957428 833.979309,307.178345 833.052734,306.909332 
	C821.945129,303.684021 815.933411,312.881561 807.908447,317.155243 
	C799.356140,332.831085 790.792908,348.501007 782.291443,364.204376 
	C781.949646,364.835602 781.969360,365.856720 782.201904,366.572418 
	C783.492615,370.545441 784.760864,374.455902 788.942261,376.645660 
	C792.638245,378.581146 796.118896,380.940063 799.635437,383.204041 
	C817.040649,394.409424 834.426147,405.645355 852.479797,417.297333 
	C844.235046,422.725372 836.216553,427.989594 828.213196,433.276794 
	C812.350830,443.755890 796.487671,454.233978 780.666809,464.775543 
	C779.894287,465.290253 779.000366,466.444489 779.057922,467.235840 
	C779.268250,470.127167 779.869568,472.989136 780.302795,475.865295 
	C781.871521,486.281372 783.730835,496.666779 784.848633,507.131226 
	C785.297852,511.336700 785.926697,513.204224 790.324280,511.079956 
	C791.320068,510.598907 792.476135,510.387970 793.583740,510.210449 
	C800.315369,509.131348 807.091309,507.058990 813.781921,507.297455 
	C823.367493,507.639130 832.885315,509.734894 842.445312,510.979553 
	C853.150879,512.373474 863.865784,513.701660 874.590881,514.934692 
	C876.337646,515.135559 878.567871,515.308472 879.866821,514.438049 
	C883.630737,511.915985 887.193726,509.030029 890.539124,505.963470 
	C894.797729,502.059601 894.722656,501.956299 897.913879,506.769440 
	C912.316040,528.491699 926.740601,550.199036 941.512085,572.446228 
	C953.895996,564.911316 963.621399,554.608398 974.748413,545.021179 
	C987.337097,552.731323 999.918640,560.453125 1012.517273,568.147095 
	C1019.632751,572.492615 1026.776123,576.792236 1033.972412,581.960815 
	C1033.979736,582.627319 1034.100464,583.315491 1033.977661,583.957092 
	C1031.693359,595.892517 1029.395508,607.825439 1027.064087,619.751709 
	C1026.348511,623.412415 1030.011230,629.014404 1033.753052,630.041016 
	C1054.796631,635.814392 1075.830322,641.624451 1096.868164,647.419189 
	C1103.053833,649.123047 1109.242065,650.817993 1115.258911,652.470276 
	C1118.274536,646.455872 1121.112305,641.312439 1123.412964,635.939026 
	C1124.259766,633.961121 1124.454956,631.270081 1123.883789,629.197510 
	C1121.831421,621.751770 1119.370972,614.416321 1116.979614,607.066833 
	C1112.303345,592.694824 1107.569580,578.341492 1103.207642,563.356262 
	C1104.757568,561.118164 1106.471802,558.970886 1107.782837,556.600586 
	C1108.369385,555.540100 1108.721191,553.718140 1108.205078,552.774963 
	C1101.559326,540.630432 1094.848267,528.517578 1087.881470,516.555359 
	C1086.154663,513.590271 1083.959473,510.276154 1081.107788,508.703644 
	C1072.255737,503.822601 1063.093628,499.451447 1053.824341,495.403656 
	C1049.851074,493.668549 1045.406494,490.160583 1040.125488,495.003723 
M305.659882,496.152191 
	C320.860596,504.129272 336.061310,512.106384 351.227081,520.065186 
	C359.750885,505.885712 368.160767,491.888000 376.580109,477.895996 
	C378.488586,474.724274 379.132843,471.974304 377.260864,468.053375 
	C374.648621,462.582031 371.419830,458.645782 365.486816,457.050323 
	C363.952209,456.637634 362.568726,455.662872 361.040070,454.146790 
	C360.362915,451.832184 359.653809,449.526428 359.013641,447.201630 
	C353.018982,425.431854 346.825714,403.712830 341.209534,381.845673 
	C339.932526,376.873566 337.559662,374.350952 332.898041,373.454803 
	C330.371765,372.969147 327.070984,371.410065 325.391357,372.429871 
	C311.992340,380.565247 298.965027,389.310120 285.655457,397.597809 
	C282.886627,399.321930 282.732086,400.682526 283.704712,403.546021 
	C288.305389,417.090759 292.611908,430.735443 297.096375,444.570007 
	C284.163696,450.782776 271.438354,456.859406 258.749634,463.011505 
	C254.350540,465.144348 250.255630,468.372864 245.635864,469.458160 
	C240.417023,470.684174 240.779587,473.857239 240.985718,477.403473 
	C241.577194,487.578949 242.554016,497.739532 242.843994,507.921204 
	C242.956207,511.861969 244.274551,513.804077 247.882675,514.983826 
	C256.669739,517.856995 265.469940,520.734863 274.081879,524.081665 
	C279.153320,526.052551 281.339020,523.363525 284.120850,519.978394 
	C290.872772,511.762360 298.016754,503.868530 305.659882,496.152191 
M226.995697,560.539124 
	C224.828079,552.786255 222.660446,545.033447 220.382111,536.884644 
	C219.236771,537.109497 217.961151,537.215942 216.784073,537.613892 
	C207.157562,540.868408 197.599060,544.336365 187.902618,547.363770 
	C185.314774,548.171692 182.109985,548.408386 179.552444,547.661316 
	C169.413315,544.699707 159.408997,541.272888 149.372864,537.963440 
	C139.863495,534.827698 139.879974,534.801086 134.816864,543.411377 
	C134.489182,543.968567 133.759674,544.326172 133.533890,544.901001 
	C130.893173,551.624023 123.527245,556.578674 125.942062,565.207336 
	C126.419685,566.913879 126.727783,568.678162 126.983711,570.434875 
	C128.667114,581.990051 130.156204,593.577698 132.133316,605.081787 
	C132.455475,606.956360 134.555054,609.180664 136.393417,610.028870 
	C145.609604,614.281006 154.971939,618.229370 164.390335,622.017273 
	C165.889755,622.620239 168.215973,622.396484 169.671768,621.628967 
	C172.940796,619.905579 175.835068,617.488464 179.007965,615.561340 
	C182.704132,613.316406 186.543671,609.469238 190.305542,609.487549 
	C206.996017,609.568970 223.680954,610.786621 240.959015,611.621887 
	C236.194702,594.461426 231.602859,577.922241 226.995697,560.539124 
M949.732239,182.940048 
	C954.641541,184.569702 959.654785,185.945038 964.432129,187.897507 
	C969.644714,190.027878 974.617798,192.553787 978.541199,185.991760 
	C978.704041,185.719421 979.014648,185.531372 979.267883,185.317673 
	C989.755676,176.466934 1000.283875,167.663208 1010.688049,158.715256 
	C1012.105957,157.495697 1013.272095,155.690338 1013.916016,153.923431 
	C1015.351135,149.985519 1016.315430,145.879089 1017.590820,141.879364 
	C1020.815796,131.765228 1024.106567,121.672081 1027.555298,111.000435 
	C1024.942627,111.000435 1023.128540,110.972816 1021.315491,111.004730 
	C1003.573303,111.317039 985.831909,111.676537 968.088989,111.937126 
	C962.392029,112.020805 952.359802,119.679993 951.018188,125.319237 
	C947.653320,139.462494 944.330933,153.615997 941.039673,167.776566 
	C939.645752,173.773712 943.331726,180.479645 949.732239,182.940048 
M434.542267,561.958130 
	C432.215454,568.083252 429.888641,574.208374 427.613983,580.196167 
	C442.645630,585.997864 456.969391,591.526306 471.316437,597.063721 
	C471.890106,596.058472 472.553802,595.267822 472.828674,594.359497 
	C480.174225,570.086914 487.527039,545.816040 494.644745,521.476440 
	C494.981232,520.325867 493.545502,517.818359 492.298920,517.174438 
	C481.051819,511.364746 469.662506,505.830383 457.814270,499.967499 
	C455.853607,505.019135 453.869843,509.944489 452.023956,514.920959 
	C446.298615,530.356384 440.625671,545.811340 434.542267,561.958130 
M1082.406006,206.968918 
	C1083.069702,208.261948 1083.830322,209.514969 1084.382446,210.853989 
	C1092.291992,230.035049 1100.156006,249.234879 1108.089722,268.405884 
	C1108.831421,270.197876 1109.522949,271.415009 1112.399170,270.473053 
	C1120.188354,267.922089 1128.145142,265.676239 1136.200684,264.231934 
	C1140.200562,263.514832 1140.185059,261.543793 1139.968262,258.805695 
	C1139.763062,256.214752 1139.393677,253.631653 1138.985352,251.062759 
	C1136.339722,234.414368 1133.705688,217.763840 1130.949463,201.133621 
	C1130.565552,198.817413 1130.232422,195.717667 1128.682251,194.499664 
	C1120.525513,188.090683 1112.032227,182.102448 1103.512085,176.174500 
	C1102.575073,175.522476 1100.220093,175.603699 1099.372314,176.332840 
	C1092.046875,182.632797 1084.916382,189.159424 1077.996582,195.376968 
	C1079.471558,199.369522 1080.747437,202.823151 1082.406006,206.968918 
M103.977829,200.600174 
	C116.379639,195.742233 128.781448,190.884293 141.660507,185.839401 
	C130.443726,166.705841 119.631744,148.262787 108.705872,129.625458 
	C100.841690,133.549728 93.335007,137.019577 86.121445,141.018204 
	C82.794792,142.862228 78.567787,144.165619 78.009239,149.138580 
	C77.132973,156.940338 75.827393,164.697983 75.116936,172.511871 
	C74.893120,174.973557 75.257629,178.078934 76.616592,179.992020 
	C82.464157,188.223907 88.781738,196.121902 94.670731,203.805649 
	C97.776001,202.784149 100.524246,201.880081 103.977829,200.600174 
M121.997719,296.506012 
	C120.444107,298.393158 118.930984,300.315399 117.330170,302.161621 
	C108.427582,312.428894 99.459099,322.639893 90.673332,333.005920 
	C89.984138,333.819092 89.918671,336.150909 90.573181,336.964996 
	C101.087303,350.042145 111.738670,363.009644 122.464493,375.914276 
	C123.213257,376.815125 124.940842,377.686829 125.958580,377.454803 
	C133.633301,375.705261 141.244232,373.675873 149.494873,371.576141 
	C141.602524,344.905640 133.821625,318.611725 126.014244,292.228333 
	C124.484352,293.871643 123.494225,294.935211 121.997719,296.506012 
z"/>
<path fill="#D4886B" opacity="1.000000" stroke="none" 
	d="
M839.468628,665.000000 
	C842.206848,658.922791 845.286926,652.774414 848.650452,646.785156 
	C853.597900,637.975586 858.747681,629.279602 863.925171,620.338501 
	C850.718384,612.140808 837.495422,604.220398 824.576050,595.832397 
	C811.814575,587.547058 798.147644,580.531616 786.241150,570.999817 
	C786.481567,570.465942 786.721985,569.932129 786.962402,569.398254 
	C804.506042,565.265259 822.055664,561.157471 839.591125,556.989807 
	C850.126831,554.485840 860.672974,552.012085 871.142273,549.251038 
	C873.966003,548.506287 875.255859,549.608948 875.945312,551.804626 
	C881.357361,569.039856 886.747864,586.282837 891.961121,603.578796 
	C892.837708,606.487061 894.332214,607.768677 897.189636,608.720642 
	C922.394470,617.117859 947.530396,625.721924 972.693420,634.267090 
	C967.847290,644.443604 963.073120,654.468933 958.649536,664.747131 
	C919.312439,665.000000 879.624878,665.000000 839.468628,665.000000 
z"/>
<path fill="#D3876A" opacity="1.000000" stroke="none" 
	d="
M311.468658,665.000000 
	C323.331299,648.446533 335.499725,631.767395 348.107574,615.427307 
	C351.287567,611.305969 349.857605,607.195007 349.798187,603.156677 
	C349.702271,596.640808 348.578491,590.144653 348.148193,583.623169 
	C348.093262,582.790649 349.481079,581.226562 350.390350,581.064209 
	C360.567627,579.246643 370.748138,576.691772 380.999268,576.322876 
	C387.272461,576.097168 393.718842,579.148010 399.998627,581.024597 
	C408.290497,583.502380 407.936646,583.668030 409.078552,592.600342 
	C410.803955,606.097046 413.066711,619.524292 414.993683,632.996399 
	C415.381805,635.710022 415.290649,638.492188 415.447784,641.821655 
	C406.746460,646.161865 397.523712,650.840576 388.225006,655.363220 
	C384.282501,657.280762 380.314392,658.995056 380.011536,664.607666 
	C357.312439,665.000000 334.624878,665.000000 311.468658,665.000000 
z"/>
<path fill="#D4896D" opacity="1.000000" stroke="none" 
	d="
M719.468628,665.000000 
	C716.850769,658.387634 714.763550,651.754150 712.529297,645.170715 
	C711.184387,641.207764 709.610413,637.322449 707.884705,632.723389 
	C730.542175,629.206116 752.891968,625.736633 775.782593,622.183167 
	C776.490173,625.694092 778.174377,629.545349 777.733704,633.135864 
	C777.296204,636.700562 775.130920,640.287170 773.000244,643.363220 
	C768.006531,650.572449 762.580322,657.481934 757.664612,664.756409 
	C745.312439,665.000000 732.624878,665.000000 719.468628,665.000000 
z"/>
<path fill="#DEA48F" opacity="1.000000" stroke="none" 
	d="
M69.468658,665.000000 
	C67.145988,656.198364 65.291977,647.396667 63.428406,638.549622 
	C79.936211,633.198486 95.650803,628.104431 111.394272,623.001038 
	C117.217659,636.785278 123.025955,650.533813 128.917114,664.641174 
	C109.312439,665.000000 89.624878,665.000000 69.468658,665.000000 
z"/>
<path fill="#D3876A" opacity="1.000000" stroke="none" 
	d="
M974.025330,545.137634 
	C963.621399,554.608398 953.895996,564.911316 941.512085,572.446228 
	C926.740601,550.199036 912.316040,528.491699 897.913879,506.769440 
	C894.722656,501.956299 894.797729,502.059601 890.539124,505.963470 
	C887.193726,509.030029 883.630737,511.915985 879.866821,514.438049 
	C878.567871,515.308472 876.337646,515.135559 874.590881,514.934692 
	C863.865784,513.701660 853.150879,512.373474 842.445312,510.979553 
	C832.885315,509.734894 823.367493,507.639130 813.781921,507.297455 
	C807.091309,507.058990 800.315369,509.131348 793.583740,510.210449 
	C792.476135,510.387970 791.320068,510.598907 790.324280,511.079956 
	C785.926697,513.204224 785.297852,511.336700 784.848633,507.131226 
	C783.730835,496.666779 781.871521,486.281372 780.302795,475.865295 
	C779.869568,472.989136 779.268250,470.127167 779.057922,467.235840 
	C779.000366,466.444489 779.894287,465.290253 780.666809,464.775543 
	C796.487671,454.233978 812.350830,443.755890 828.213196,433.276794 
	C836.216553,427.989594 844.235046,422.725372 852.479797,417.297333 
	C834.426147,405.645355 817.040649,394.409424 799.635437,383.204041 
	C796.118896,380.940063 792.638245,378.581146 788.942261,376.645660 
	C784.760864,374.455902 783.492615,370.545441 782.201904,366.572418 
	C781.969360,365.856720 781.949646,364.835602 782.291443,364.204376 
	C790.792908,348.501007 799.356140,332.831085 807.908447,317.155243 
	C815.933411,312.881561 821.945129,303.684021 833.052734,306.909332 
	C833.979309,307.178345 835.042419,306.957428 836.040100,307.005188 
	C842.803101,307.329010 849.579468,308.080566 856.323669,307.856659 
	C861.265442,307.692535 866.148315,306.133026 871.092163,305.444763 
	C872.872437,305.196930 875.037354,305.128662 876.545715,305.908630 
	C892.699829,314.261902 908.757568,322.801727 925.033264,331.391510 
	C924.686523,337.935486 924.531433,344.537628 923.867859,351.088226 
	C923.675049,352.991089 922.335144,355.020782 920.995422,356.523834 
	C913.770325,364.629761 906.380066,372.588440 899.046509,380.597687 
	C887.384521,393.334045 875.722290,406.070190 863.128967,419.823517 
	C867.718018,423.654846 872.009216,427.749969 876.814026,431.110840 
	C882.057312,434.778381 885.072449,438.950226 886.233826,445.657684 
	C889.314209,463.448334 893.497864,481.047974 897.089600,498.001404 
	C907.562195,498.001404 917.636780,498.123138 927.707214,497.973114 
	C943.134827,497.743347 958.559631,497.326324 974.501343,497.424133 
	C974.686462,513.618835 974.355896,529.378235 974.025330,545.137634 
z"/>
<path fill="#D48A6E" opacity="1.000000" stroke="none" 
	d="
M305.002808,495.844910 
	C298.016754,503.868530 290.872772,511.762360 284.120850,519.978394 
	C281.339020,523.363525 279.153320,526.052551 274.081879,524.081665 
	C265.469940,520.734863 256.669739,517.856995 247.882675,514.983826 
	C244.274551,513.804077 242.956207,511.861969 242.843994,507.921204 
	C242.554016,497.739532 241.577194,487.578949 240.985718,477.403473 
	C240.779587,473.857239 240.417023,470.684174 245.635864,469.458160 
	C250.255630,468.372864 254.350540,465.144348 258.749634,463.011505 
	C271.438354,456.859406 284.163696,450.782776 297.096375,444.570007 
	C292.611908,430.735443 288.305389,417.090759 283.704712,403.546021 
	C282.732086,400.682526 282.886627,399.321930 285.655457,397.597809 
	C298.965027,389.310120 311.992340,380.565247 325.391357,372.429871 
	C327.070984,371.410065 330.371765,372.969147 332.898041,373.454803 
	C337.559662,374.350952 339.932526,376.873566 341.209534,381.845673 
	C346.825714,403.712830 353.018982,425.431854 359.013641,447.201630 
	C359.653809,449.526428 360.362915,451.832184 360.673309,454.630829 
	C348.974609,456.744720 337.618378,458.229767 326.330597,460.122955 
	C323.989105,460.515656 320.802765,461.873779 319.878693,463.722931 
	C314.606384,474.273499 309.900909,485.107330 305.002808,495.844910 
z"/>
<path fill="#D3876A" opacity="1.000000" stroke="none" 
	d="
M227.003357,560.961060 
	C231.602859,577.922241 236.194702,594.461426 240.959015,611.621887 
	C223.680954,610.786621 206.996017,609.568970 190.305542,609.487549 
	C186.543671,609.469238 182.704132,613.316406 179.007965,615.561340 
	C175.835068,617.488464 172.940796,619.905579 169.671768,621.628967 
	C168.215973,622.396484 165.889755,622.620239 164.390335,622.017273 
	C154.971939,618.229370 145.609604,614.281006 136.393417,610.028870 
	C134.555054,609.180664 132.455475,606.956360 132.133316,605.081787 
	C130.156204,593.577698 128.667114,581.990051 126.983711,570.434875 
	C126.727783,568.678162 126.419685,566.913879 125.942062,565.207336 
	C123.527245,556.578674 130.893173,551.624023 133.533890,544.901001 
	C133.759674,544.326172 134.489182,543.968567 134.816864,543.411377 
	C139.879974,534.801086 139.863495,534.827698 149.372864,537.963440 
	C159.408997,541.272888 169.413315,544.699707 179.552444,547.661316 
	C182.109985,548.408386 185.314774,548.171692 187.902618,547.363770 
	C197.599060,544.336365 207.157562,540.868408 216.784073,537.613892 
	C217.961151,537.215942 219.236771,537.109497 220.382111,536.884644 
	C222.660446,545.033447 224.828079,552.786255 227.003357,560.961060 
z"/>
<path fill="#DB9C84" opacity="1.000000" stroke="none" 
	d="
M1102.859619,563.980347 
	C1107.569580,578.341492 1112.303345,592.694824 1116.979614,607.066833 
	C1119.370972,614.416321 1121.831421,621.751770 1123.883789,629.197510 
	C1124.454956,631.270081 1124.259766,633.961121 1123.412964,635.939026 
	C1121.112305,641.312439 1118.274536,646.455872 1115.258911,652.470276 
	C1109.242065,650.817993 1103.053833,649.123047 1096.868164,647.419189 
	C1075.830322,641.624451 1054.796631,635.814392 1033.753052,630.041016 
	C1030.011230,629.014404 1026.348511,623.412415 1027.064087,619.751709 
	C1029.395508,607.825439 1031.693359,595.892517 1033.977661,583.957092 
	C1034.100464,583.315491 1033.979736,582.627319 1034.280029,581.458191 
	C1036.833008,578.922607 1039.078247,576.889587 1041.705811,574.881592 
	C1050.087036,573.424133 1058.078735,571.902527 1066.086060,570.468445 
	C1078.338257,568.273987 1090.601196,566.140015 1102.859619,563.980347 
z"/>
<path fill="#E8C1B2" opacity="1.000000" stroke="none" 
	d="
M1041.323486,574.856628 
	C1039.078247,576.889587 1036.833008,578.922607 1034.247314,581.034058 
	C1026.776123,576.792236 1019.632751,572.492615 1012.517273,568.147095 
	C999.918640,560.453125 987.337097,552.731323 974.386841,545.079407 
	C974.355896,529.378235 974.686462,513.618835 974.963135,497.389618 
	C977.344543,494.362335 980.412659,492.151886 982.053589,489.158997 
	C984.072876,485.476166 986.956055,485.608887 989.946594,486.097168 
	C1005.454407,488.629028 1020.932007,491.346191 1036.415283,494.026886 
	C1037.670654,494.244263 1038.889648,494.673157 1040.525879,495.427429 
	C1041.058716,522.186279 1041.191040,548.521484 1041.323486,574.856628 
z"/>
<path fill="#DDA28C" opacity="1.000000" stroke="none" 
	d="
M949.386841,182.741791 
	C943.331726,180.479645 939.645752,173.773712 941.039673,167.776566 
	C944.330933,153.615997 947.653320,139.462494 951.018188,125.319237 
	C952.359802,119.679993 962.392029,112.020805 968.088989,111.937126 
	C985.831909,111.676537 1003.573303,111.317039 1021.315491,111.004730 
	C1023.128540,110.972816 1024.942627,111.000435 1027.555298,111.000435 
	C1024.106567,121.672081 1020.815796,131.765228 1017.590820,141.879364 
	C1016.315430,145.879089 1015.351135,149.985519 1013.916016,153.923431 
	C1013.272095,155.690338 1012.105957,157.495697 1010.688049,158.715256 
	C1000.283875,167.663208 989.755676,176.466934 979.267883,185.317673 
	C979.014648,185.531372 978.704041,185.719421 978.541199,185.991760 
	C974.617798,192.553787 969.644714,190.027878 964.432129,187.897507 
	C959.654785,185.945038 954.641541,184.569702 949.386841,182.741791 
z"/>
<path fill="#D3876A" opacity="1.000000" stroke="none" 
	d="
M1041.705811,574.881592 
	C1041.191040,548.521484 1041.058716,522.186279 1040.941162,495.377808 
	C1045.406494,490.160583 1049.851074,493.668549 1053.824341,495.403656 
	C1063.093628,499.451447 1072.255737,503.822601 1081.107788,508.703644 
	C1083.959473,510.276154 1086.154663,513.590271 1087.881470,516.555359 
	C1094.848267,528.517578 1101.559326,540.630432 1108.205078,552.774963 
	C1108.721191,553.718140 1108.369385,555.540100 1107.782837,556.600586 
	C1106.471802,558.970886 1104.757568,561.118164 1103.033691,563.668335 
	C1090.601196,566.140015 1078.338257,568.273987 1066.086060,570.468445 
	C1058.078735,571.902527 1050.087036,573.424133 1041.705811,574.881592 
z"/>
<path fill="#D69076" opacity="1.000000" stroke="none" 
	d="
M434.737366,561.608398 
	C440.625671,545.811340 446.298615,530.356384 452.023956,514.920959 
	C453.869843,509.944489 455.853607,505.019135 457.814270,499.967499 
	C469.662506,505.830383 481.051819,511.364746 492.298920,517.174438 
	C493.545502,517.818359 494.981232,520.325867 494.644745,521.476440 
	C487.527039,545.816040 480.174225,570.086914 472.828674,594.359497 
	C472.553802,595.267822 471.890106,596.058472 471.316437,597.063721 
	C456.969391,591.526306 442.645630,585.997864 427.613983,580.196167 
	C429.888641,574.208374 432.215454,568.083252 434.737366,561.608398 
z"/>
<path fill="#DEA48E" opacity="1.000000" stroke="none" 
	d="
M1082.214600,206.622849 
	C1080.747437,202.823151 1079.471558,199.369522 1077.996582,195.376968 
	C1084.916382,189.159424 1092.046875,182.632797 1099.372314,176.332840 
	C1100.220093,175.603699 1102.575073,175.522476 1103.512085,176.174500 
	C1112.032227,182.102448 1120.525513,188.090683 1128.682251,194.499664 
	C1130.232422,195.717667 1130.565552,198.817413 1130.949463,201.133621 
	C1133.705688,217.763840 1136.339722,234.414368 1138.985352,251.062759 
	C1139.393677,253.631653 1139.763062,256.214752 1139.968262,258.805695 
	C1140.185059,261.543793 1140.200562,263.514832 1136.200684,264.231934 
	C1128.145142,265.676239 1120.188354,267.922089 1112.399170,270.473053 
	C1109.522949,271.415009 1108.831421,270.197876 1108.089722,268.405884 
	C1100.156006,249.234879 1092.291992,230.035049 1084.382446,210.853989 
	C1083.830322,209.514969 1083.069702,208.261948 1082.214600,206.622849 
z"/>
<path fill="#DA9A82" opacity="1.000000" stroke="none" 
	d="
M305.331360,495.998535 
	C309.900909,485.107330 314.606384,474.273499 319.878693,463.722931 
	C320.802765,461.873779 323.989105,460.515656 326.330597,460.122955 
	C337.618378,458.229767 348.974609,456.744720 360.711182,455.030579 
	C362.568726,455.662872 363.952209,456.637634 365.486816,457.050323 
	C371.419830,458.645782 374.648621,462.582031 377.260864,468.053375 
	C379.132843,471.974304 378.488586,474.724274 376.580109,477.895996 
	C368.160767,491.888000 359.750885,505.885712 351.227081,520.065186 
	C336.061310,512.106384 320.860596,504.129272 305.331360,495.998535 
z"/>
<path fill="#D3876A" opacity="1.000000" stroke="none" 
	d="
M103.625168,200.788101 
	C100.524246,201.880081 97.776001,202.784149 94.670731,203.805649 
	C88.781738,196.121902 82.464157,188.223907 76.616592,179.992020 
	C75.257629,178.078934 74.893120,174.973557 75.116936,172.511871 
	C75.827393,164.697983 77.132973,156.940338 78.009239,149.138580 
	C78.567787,144.165619 82.794792,142.862228 86.121445,141.018204 
	C93.335007,137.019577 100.841690,133.549728 108.705872,129.625458 
	C119.631744,148.262787 130.443726,166.705841 141.660507,185.839401 
	C128.781448,190.884293 116.379639,195.742233 103.625168,200.788101 
z"/>
<path fill="#D48B6F" opacity="1.000000" stroke="none" 
	d="
M122.250908,296.252380 
	C123.494225,294.935211 124.484352,293.871643 126.014244,292.228333 
	C133.821625,318.611725 141.602524,344.905640 149.494873,371.576141 
	C141.244232,373.675873 133.633301,375.705261 125.958580,377.454803 
	C124.940842,377.686829 123.213257,376.815125 122.464493,375.914276 
	C111.738670,363.009644 101.087303,350.042145 90.573181,336.964996 
	C89.918671,336.150909 89.984138,333.819092 90.673332,333.005920 
	C99.459099,322.639893 108.427582,312.428894 117.330170,302.161621 
	C118.930984,300.315399 120.444107,298.393158 122.250908,296.252380 
z"/>
</svg>