<?xml version="1.0" standalone="no"?>
<!DOCTYPE svg PUBLIC "-//W3C//DTD SVG 20010904//EN"
 "http://www.w3.org/TR/2001/REC-SVG-20010904/DTD/svg10.dtd">
<svg version="1.0" xmlns="http://www.w3.org/2000/svg"
 width="300.000000pt" height="166.000000pt" viewBox="0 0 300.000000 166.000000"
 preserveAspectRatio="xMidYMid meet">
<metadata>
Created by potrace 1.10, written by Peter Selinger 2001-2011
</metadata>
<g transform="translate(0.000000,166.000000) scale(0.100000,-0.100000)"
fill="#000000" stroke="none">
<path d="M2388 1373 c-18 -20 -42 -127 -34 -148 3 -8 21 -21 41 -29 35 -15 37
-15 69 15 19 16 41 35 50 42 12 9 56 114 56 134 0 1 -38 3 -83 3 -67 0 -87 -3
-99 -17z m131 -60 c-20 -50 -93 -107 -120 -93 -35 19 -16 126 24 135 41 9 92
10 101 3 5 -4 3 -23 -5 -45z"/>
<path d="M228 1319 c-27 -13 -38 -26 -38 -42 0 -12 -2 -31 -5 -42 -3 -13 6
-32 23 -53 l29 -32 54 22 c30 12 56 23 58 24 3 3 -77 145 -82 144 -1 -1 -19
-10 -39 -21z m52 -51 c26 -44 25 -57 -6 -68 -34 -13 -54 2 -54 41 0 23 21 59
36 59 2 0 13 -15 24 -32z"/>
<path d="M2721 1202 l-32 -27 37 -90 c20 -49 40 -93 44 -98 5 -6 65 8 78 18 2
2 -2 40 -9 85 -12 75 -15 83 -49 110 l-37 29 -32 -27z m67 -33 c11 -11 22 -41
26 -66 10 -73 8 -83 -14 -83 -33 0 -87 139 -63 163 12 13 32 7 51 -14z"/>
<path d="M270 888 c-19 -23 -38 -47 -42 -54 -11 -17 71 -114 96 -114 48 1 50
11 20 114 -15 53 -30 96 -33 96 -3 0 -22 -19 -41 -42z m50 -73 c7 -25 10 -49
6 -52 -4 -4 -21 7 -38 24 -31 31 -31 32 -14 58 21 32 30 27 46 -30z"/>
<path d="M2034 882 c-21 -17 -84 -123 -84 -141 0 -5 38 -34 85 -63 46 -29 85
-55 85 -59 0 -3 -41 -31 -90 -63 -66 -42 -89 -63 -86 -75 2 -9 7 -35 11 -58
l7 -42 41 5 c23 3 76 1 117 -4 63 -8 78 -7 93 6 21 18 19 20 86 -81 57 -85 52
-83 109 -33 17 15 22 30 22 71 0 73 14 88 75 82 28 -3 60 -6 73 -6 21 -1 22
-4 22 -99 0 -54 -3 -101 -6 -105 -3 -3 -27 10 -53 28 -42 31 -101 60 -101 51
0 -2 32 -23 70 -46 77 -47 74 -38 53 -126 -6 -29 9 -37 122 -68 94 -26 100
-26 112 -10 18 25 17 40 -12 125 -14 41 -24 82 -21 93 3 10 -9 43 -26 73 -37
66 -71 83 -198 102 -75 11 -85 11 -96 -3 -9 -13 -31 -16 -108 -16 -53 0 -96 2
-96 4 0 3 -7 37 -15 76 -11 52 -22 77 -40 93 l-26 22 76 82 c97 105 99 125 17
169 -47 26 -69 32 -127 33 -53 0 -75 -4 -91 -17z m190 -34 c73 -35 71 -44 -26
-151 l-54 -58 -64 42 c-94 62 -95 64 -79 101 7 17 23 44 37 59 21 26 30 29 83
29 40 0 73 -7 103 -22z m-59 -278 c23 -25 50 -139 36 -153 -6 -6 -46 -7 -113
-1 l-103 9 -3 32 c-3 29 2 35 70 82 40 27 78 50 84 50 6 1 19 -8 29 -19z m243
-222 c2 -28 -2 -40 -20 -52 -12 -9 -26 -16 -30 -16 -9 0 -68 89 -68 102 0 5
26 8 58 6 l57 -3 3 -37z m266 21 c33 -26 59 -75 53 -100 -3 -12 0 -19 10 -19
8 0 11 -5 8 -10 -4 -6 3 -40 14 -75 23 -70 25 -91 12 -99 -4 -3 -44 5 -87 17
l-79 23 -3 57 c-2 40 1 59 10 62 10 4 12 26 10 85 -5 89 3 98 52 59z"/>
<path d="M770 708 c-25 -16 -51 -33 -58 -37 -10 -5 -8 -19 7 -63 l19 -55 -69
-34 -70 -33 3 -55 3 -54 44 -15 45 -15 33 37 33 36 53 -27 c28 -16 55 -29 58
-31 3 -1 23 25 43 58 29 49 34 65 26 81 -6 10 -17 19 -24 19 -8 0 -23 39 -41
104 -19 73 -32 105 -44 108 -9 3 -36 -8 -61 -24z m70 -60 c6 -24 16 -60 21
-81 6 -21 19 -47 30 -58 24 -24 24 -36 -1 -77 -15 -25 -25 -32 -38 -27 -9 4
-30 12 -47 18 -16 5 -33 14 -36 20 -4 5 -22 -5 -41 -22 -53 -47 -98 -38 -98
19 0 22 10 32 56 56 68 35 78 52 64 102 -14 53 -13 60 18 76 46 26 60 20 72
-26z"/>
<path d="M1133 393 c-4 -10 -21 -55 -39 -100 l-32 -82 54 -21 c30 -11 57 -20
59 -20 4 0 66 193 62 196 -7 5 -87 44 -92 44 -3 0 -9 -8 -12 -17z m56 -37 c10
-11 8 -28 -6 -78 -19 -63 -34 -77 -63 -59 -12 9 -13 17 -2 58 14 51 37 93 51
93 5 0 14 -6 20 -14z"/>
<path d="M327 297 c-15 -28 -17 -44 -10 -93 8 -57 9 -60 52 -81 l44 -23 33 21
c28 17 43 19 94 13 33 -4 60 -3 60 2 -1 27 -48 178 -57 181 -6 2 -27 -3 -47
-11 -33 -14 -41 -13 -93 5 -31 10 -57 19 -57 19 -1 0 -10 -15 -19 -33z m147
-22 l59 0 13 -45 c18 -60 13 -70 -37 -70 -24 0 -57 -5 -75 -12 -48 -17 -81 7
-90 67 -8 57 7 80 45 68 14 -4 52 -8 85 -8z"/>
<path d="M2062 265 c-51 -12 -95 -25 -98 -28 -3 -2 38 -31 90 -63 53 -33 96
-62 96 -66 0 -4 -13 -30 -30 -58 -26 -44 -27 -50 -11 -50 23 0 66 89 57 118
-4 11 -31 37 -61 57 -81 53 -80 58 14 71 l49 6 16 -48 c24 -72 36 -82 123
-113 43 -16 77 -32 77 -37 -1 -5 -5 -19 -9 -31 -4 -16 -2 -23 7 -23 18 0 53
71 39 79 -5 4 -50 20 -99 36 l-90 30 -23 73 c-16 51 -27 72 -38 71 -9 -1 -58
-11 -109 -24z"/>
<path d="M910 217 l-45 -8 3 -39 c4 -34 -2 -47 -43 -100 -45 -59 -52 -79 -22
-67 21 8 89 112 96 149 6 29 11 33 41 36 43 4 60 -17 60 -74 0 -37 -4 -45 -30
-60 -28 -17 -46 -42 -36 -52 3 -2 12 3 21 11 8 9 31 22 51 29 32 11 35 15 30
43 -3 16 -8 51 -11 76 -6 41 -10 47 -38 56 -19 5 -51 5 -77 0z"/>
<path d="M213 87 c-59 -19 -62 -22 -56 -46 11 -48 33 -59 33 -16 0 26 25 45
59 45 13 0 24 -11 32 -35 7 -19 19 -35 26 -35 17 0 16 6 -10 61 l-22 46 -62
-20z"/>
<path d="M1845 97 c-38 -6 -72 -12 -74 -13 -2 -2 2 -22 9 -44 15 -45 42 -56
34 -13 -6 31 8 43 54 43 l32 0 -14 -35 c-19 -45 -5 -45 32 1 29 35 34 76 8 72
-6 0 -42 -6 -81 -11z"/>
</g>
</svg>
